#!OML:ASF F:\VICON\USERDATA\INSTALL\Justin_Nancy\Justin_Nancy.ASF
:FULLY-SPECIFIED
:DEGREES
368
root 0.0991184 17.5437 14.8409 -2.24326 39.2778 -3.80995
lowerback 7.66066 0.544758 2.41357
upperback 0.487067 1.07007 2.85273
thorax -3.80527 0.522629 1.48182
lowerneck -16.2207 -3.71879 -9.24559
upperneck 24.5638 -3.64702 4.16828
head 10.8692 -1.97481 2.55605
rclavicle 6.25178e-014 3.57812e-014
rhumerus -31.9104 -12.8814 -77.081
rradius 33.9151
rwrist 3.3372
rhand -11.9636 12.399
rfingers 7.12502
rthumb 14.092 -17.1032
lclavicle 6.25178e-014 3.57812e-014
lhumerus -35.2399 10.9342 83.2242
lradius 26.8376
lwrist -10.8522
lhand -14.2616 20.3746
lfingers 7.12502
lthumb 11.8768 50.0178
rfemur -3.49789 4.43837 29.8531
rtibia 18.919
rfoot -10.7139 -3.13527
rtoes 12.5431
lfemur -30.3065 1.8449 -15.5523
ltibia 63.9403
lfoot -4.44366 -3.0061
ltoes 2.29443
369
root 0.186104 17.5282 14.9422 -2.08647 39.2346 -3.7996
lowerback 7.728 0.555966 2.62152
upperback 0.341929 1.10634 2.75055
thorax -3.98824 0.533809 1.25434
lowerneck -16.2681 -3.66252 -9.32987
upperneck 24.7115 -3.56895 4.27777
head 10.931 -1.93479 2.62348
rclavicle 3.58806e-014 1.51076e-014
rhumerus -32.0973 -12.5756 -77.2673
rradius 34.6871
rwrist 3.20896
rhand -13.1483 13.4322
rfingers 7.12502
rthumb 12.9502 -16.1459
lclavicle 3.58806e-014 1.51076e-014
lhumerus -35.5501 10.8517 83.2031
lradius 26.6429
lwrist -11.1013
lhand -14.5211 20.2446
lfingers 7.12502
lthumb 11.6266 49.902
rfemur -3.22689 4.31044 29.8531
rtibia 19.0559
rfoot -11.6959 -4.08667
rtoes 8.18741
lfemur -30.8617 1.61917 -15.6598
ltibia 62.3732
lfoot -5.0709 -1.93103
ltoes 1.96797
370
root 0.280112 17.5271 15.0452 -1.8716 39.2045 -3.58845
lowerback 7.64578 0.674607 2.70859
upperback 0.363777 1.26194 2.64586
thorax -3.91555 0.608736 1.08072
lowerneck -16.2466 -3.77564 -9.42484
upperneck 24.6183 -3.692 4.2376
head 10.9043 -2.00364 2.60538
rclavicle 6.53505e-014 -3.10104e-014
rhumerus -32.9083 -12.9572 -77.1878
rradius 36.2145
rwrist 3.62418
rhand -13.5061 13.8588
rfingers 7.12502
rthumb 12.6053 -15.7409
lclavicle 6.53505e-014 -3.10104e-014
lhumerus -35.5309 10.5346 83.5559
lradius 26.516
lwrist -10.9586
lhand -15.1739 21.6035
lfingers 7.12502
lthumb 10.997 51.2954
rfemur -2.84462 3.95567 29.6288
rtibia 19.162
rfoot -12.1974 -3.5776
rtoes 8.8096
lfemur -31.2081 1.42035 -15.9471
ltibia 60.5695
lfoot -5.85571 -0.986182
ltoes 1.76655
371
root 0.367276 17.5208 15.1549 -1.757 39.0357 -3.49555
lowerback 7.41853 0.756131 2.57503
upperback 0.52536 1.34367 2.66735
thorax -3.62381 0.654925 1.17259
lowerneck -16.2958 -3.8207 -9.46095
upperneck 24.4111 -3.73051 4.20205
head 10.8405 -2.02664 2.58929
rclavicle -4.08999e-014 3.97569e-015
rhumerus -32.5175 -12.7829 -77.2591
rradius 36.849
rwrist 4.02521
rhand -13.3713 13.6085
rfingers 7.12502
rthumb 12.7353 -15.9831
lclavicle -4.08999e-014 3.97569e-015
lhumerus -35.5011 10.4491 83.884
lradius 26.6804
lwrist -10.634
lhand -15.5958 23.4016
lfingers 7.12502
lthumb 10.59 53.1148
rfemur -2.41339 3.7722 29.5524
rtibia 19.2559
rfoot -12.6985 -3.40127
rtoes 9.89005
lfemur -31.4725 1.33001 -16.078
ltibia 58.6809
lfoot -6.10926 0.188804
ltoes 1.66182
372
root 0.451082 17.5028 15.2594 -1.52682 38.9734 -3.28079
lowerback 7.3002 0.77779 2.42596
upperback 0.557916 1.35137 2.62247
thorax -3.52595 0.661332 1.21059
lowerneck -16.2512 -3.7961 -9.50768
upperneck 24.2746 -3.70262 4.26216
head 10.7811 -2.01016 2.62166
rclavicle 7.50909e-014 -6.36111e-015
rhumerus -30.8549 -11.9013 -77.4073
rradius 35.9642
rwrist 3.67256
rhand -13.2933 13.6366
rfingers 7.12502
rthumb 12.8104 -15.9504
lclavicle 7.50909e-014 -6.36111e-015
lhumerus -35.6975 9.77275 84.442
lradius 27.1183
lwrist -9.51776
lhand -16.0467 24.754
lfingers 7.12502
lthumb 10.1551 54.4889
rfemur -1.9957 3.56151 29.3926
rtibia 19.2572
rfoot -13.1216 -3.33463
rtoes 10.6336
lfemur -31.7358 0.954962 -16.289
ltibia 56.7106
lfoot -6.39715 1.50878
ltoes 1.41895
373
root 0.532561 17.4783 15.3633 -1.63312 38.8143 -3.57723
lowerback 7.35555 0.837432 2.76574
upperback 0.497665 1.4611 2.56838
thorax -3.61016 0.709012 0.951799
lowerneck -16.2415 -3.66992 -9.15174
upperneck 24.2951 -3.58157 4.10139
head 10.7649 -1.94131 2.52165
rclavicle -5.1684e-015 -1.82882e-014
rhumerus -32.0441 -12.0562 -77.7058
rradius 37.7428
rwrist 3.28559
rhand -12.7832 13.2934
rfingers 7.12502
rthumb 13.3022 -16.2621
lclavicle -5.1684e-015 -1.82882e-014
lhumerus -35.852 10.2356 83.8491
lradius 26.5866
lwrist -11.0095
lhand -14.5068 20.9712
lfingers 7.12502
lthumb 11.6404 50.6279
rfemur -1.54015 3.68062 29.7079
rtibia 19.1783
rfoot -13.4269 -3.33054
rtoes 10.7742
lfemur -31.9173 0.689733 -15.9749
ltibia 54.6897
lfoot -6.9744 2.42929
ltoes 1.57485
374
root 0.616998 17.4618 15.4621 -1.84691 38.562 -3.96767
lowerback 7.53239 0.875761 3.19757
upperback 0.435335 1.55963 2.56198
thorax -3.7624 0.748921 0.68993
lowerneck -16.2834 -3.60208 -9.14558
upperneck 24.3795 -3.49562 4.14595
head 10.7979 -1.89661 2.55021
rclavicle 6.05299e-014 -2.38542e-014
rhumerus -31.9298 -11.8598 -77.8974
rradius 38.3616
rwrist 2.03961
rhand -12.1926 13.2228
rfingers 7.12502
rthumb 13.8713 -16.2946
lclavicle 6.05299e-014 -2.38542e-014
lhumerus -36.1059 10.6071 83.5577
lradius 26.3724
lwrist -11.3738
lhand -14.2179 21.4184
lfingers 7.12502
lthumb 11.919 51.0591
rfemur -1.00033 4.21899 30.1472
rtibia 19.0571
rfoot -13.524 -3.64583
rtoes 9.99575
lfemur -31.9488 0.629693 -15.5567
ltibia 52.4985
lfoot -7.5351 3.01913
ltoes 2.64256
